{
  "title": "Raaz Reboot (2016) 1CD x264 DesiSCR Rip AAC 2.0 -DDR",
  "uid": 15847290,
  "size": 742795020,
  "categoryP": "video",
  "categoryS": "movies",
  "magnet": "?xt=urn:btih:86f6f288c0f27cc516342deb46abec20867c0a0d&amp;dn=Raaz+Reboot+%282016%29+1CD+x264+DesiSCR+Rip+AAC+2.0+-DDR&amp;tr=udp%3A%2F%2Ftracker.leechers-paradise.org%3A6969&amp;tr=udp%3A%2F%2Fzer0day.ch%3A1337&amp;tr=udp%3A%2F%2Fopen.demonii.com%3A1337&amp;tr=udp%3A%2F%2Ftracker.coppersurfer.tk%3A6969&amp;tr=udp%3A%2F%2Fexodus.desync.com%3A6969",
  "seeders": 398,
  "leechers": 199,
  "uploader": "SaM",
  "files": 3,
  "time": 1474116671,
  "description": "1 CD x264 DesiSCR Rip\r\n\r\nHindi AAC 2.0 Audio\r\n\r\n\r\n\r\nSCREENSHOTS\r\n \nhttp://extraimago.com/image/wdWM \nhttp://extraimago.com/image/wdW9 \nhttp://extraimago.com/image/wdW3 \nhttp://extraimago.com/image/wdWb \nhttp://extraimago.com/image/wdWh \nhttp://extraimago.com/image/wdWd \nhttp://extraimago.com/image/wdWI \nhttp://extraimago.com/image/wdWl \nhttp://extraimago.com/image/wdWi \nhttp://extraimago.com/image/wdWm \nhttp://extraimago.com/image/wdWR \nhttp://extraimago.com/image/wdWQ \nhttp://extraimago.com/image/wdWL \nhttp://extraimago.com/image/wdWy \nhttp://extraimago.com/image/wdWq\r\n\r\nSpecs:\r\n\r\n\r\nSource: DesiSCR @ ICTV\r\n\r\nFormat : Matroska\r\nFile size : 698 MiB\r\nDuration : 2 h 7 min\r\nOverall bit rate mode : Variable\r\nOverall bit rate : 765 kb/s\r\n\r\nVideo\r\nID : 1\r\nFormat : AVC\r\nFormat/Info : Advanced Video Codec\r\nFormat profile :   \r\nFormat settings, CABAC : Yes\r\nFormat settings, ReFrames : 16 frames\r\nCodec ID : V_MPEG4/ISO/AVC\r\nDuration : 2 h 7 min\r\nBit rate mode : Variable\r\nBit rate : 699 kb/s\r\nMaximum bit rate : 62.5 Mb/s\r\nWidth : 640 pixels\r\nHeight : 272 pixels\r\nDisplay aspect ratio : 2.35:1\r\nFrame rate mode : Constant\r\nFrame rate : 25.000 FPS\r\nColor space : YUV\r\nChroma subsampling : 4:2:0\r\nBit depth : 8 bits\r\nScan type : Progressive\r\nBits/(Pixel*Frame) : 0.161\r\nStream size : 638 MiB (91%)\r\nDefault : Yes\r\nForced : No\r\nColor range : Limited\r\nColor primaries : BT.601 NTSC\r\nTransfer characteristics : BT.601\r\nMatrix coefficients : BT.601\r\n\r\nAudio\r\nID : 2\r\nFormat : AAC\r\nFormat/Info : Advanced Audio Codec\r\nFormat profile : LC\r\nCodec ID : A_AAC\r\nDuration : 2 h 7 min\r\nBit rate : 64.0 kb/s\r\nChannel(s) : 2 channels\r\nChannel positions : Front: L R\r\nSampling rate : 48.0 kHz\r\nFrame rate : 46.875 FPS (1024 spf)\r\nCompression mode : Lossy\r\nDelay relative to video : 9 ms\r\nStream size : 58.4 MiB (8%)\r\nLanguage : Hindi\r\nDefault : Yes\r\nForced : No",
  "parsed": {
    "xt": "urn:btih:86f6f288c0f27cc516342deb46abec20867c0a0d",
    "dn": "Raaz Reboot (2016) 1CD x264 DesiSCR Rip AAC 2.0 -DDR",
    "tr": [
      "udp://exodus.desync.com:6969",
      "udp://open.demonii.com:1337",
      "udp://tracker.coppersurfer.tk:6969",
      "udp://tracker.leechers-paradise.org:6969",
      "udp://zer0day.ch:1337"
    ],
    "infoHash": "86f6f288c0f27cc516342deb46abec20867c0a0d",
    "infoHashBuffer": {
      "type": "Buffer",
      "data": [
        134,
        246,
        242,
        136,
        192,
        242,
        124,
        197,
        22,
        52,
        45,
        235,
        70,
        171,
        236,
        32,
        134,
        124,
        10,
        13
      ]
    },
    "name": "Raaz Reboot (2016) 1CD x264 DesiSCR Rip AAC 2.0 -DDR",
    "announce": [
      "udp://exodus.desync.com:6969",
      "udp://open.demonii.com:1337",
      "udp://tracker.coppersurfer.tk:6969",
      "udp://tracker.leechers-paradise.org:6969",
      "udp://zer0day.ch:1337"
    ],
    "urlList": []
  },
  "previous": 100,
  "peers": 54,
  "last_updated": "2016-12-27T05:55:37.959Z"
}